HIERARCHY
ROOT Hips
{
  OFFSET 5.84602e-005 68.8428 3.50346
  CHANNELS 6 Xposition Yposition Zposition Zrotation Xrotation Yrotation
  JOINT Spine
  {
    OFFSET 0 8.597 -4.6522
    CHANNELS 3 Zrotation Xrotation Yrotation
    JOINT Spine1
    {
      OFFSET 0 7.8454 0.4098
      CHANNELS 3 Zrotation Xrotation Yrotation
      JOINT Spine2
      {
        OFFSET 0 9.7078 -2.1609
        CHANNELS 3 Zrotation Xrotation Yrotation
        JOINT Neck
        {
          OFFSET 0 21.8761 -0.4549
          CHANNELS 3 Zrotation Xrotation Yrotation
          JOINT Head
          {
            OFFSET 0 12.3537 3.3602
            CHANNELS 3 Zrotation Xrotation Yrotation
            End Site
            {
              OFFSET 0.0001 18.9506 0.5657
            }
          }
        }
        JOINT LeftShoulder
        {
          OFFSET 2.2086 21.1115 7.2329
          CHANNELS 3 Zrotation Xrotation Yrotation
          JOINT LeftArm
          {
            OFFSET 13.1193 3.0282 -4.8998
            CHANNELS 3 Zrotation Xrotation Yrotation
            JOINT LeftForeArm
            {
              OFFSET 27.4081 -0.0973053 -0.2375
              CHANNELS 3 Zrotation Xrotation Yrotation
              JOINT LeftHand
              {
                OFFSET 22.8641 0.0662994 -0.1369
                CHANNELS 3 Zrotation Xrotation Yrotation
                JOINT LeftHandIndex1
                {
                  OFFSET 8.8614 0.775009 2.4612
                  CHANNELS 3 Zrotation Xrotation Yrotation
                  JOINT LeftHandIndex2
                  {
                    OFFSET 3.3146 -0.808304 0.5841
                    CHANNELS 3 Zrotation Xrotation Yrotation
                    JOINT LeftHandIndex3
                    {
                      OFFSET 2.2628 -0.552002 0.3989
                      CHANNELS 3 Zrotation Xrotation Yrotation
                      End Site
                      {
                        OFFSET 1.6102 -0.4807 0.2612
                      }
                    }
                  }
                }
                JOINT LeftHandMiddle1
                {
                  OFFSET 8.9937 0.895004 0.2143
                  CHANNELS 3 Zrotation Xrotation Yrotation
                  JOINT LeftHandMiddle2
                  {
                    OFFSET 4.0984 0.0113983 -0.0242
                    CHANNELS 3 Zrotation Xrotation Yrotation
                    JOINT LeftHandMiddle3
                    {
                      OFFSET 2.2716 0.00689697 -0.0138001
                      CHANNELS 3 Zrotation Xrotation Yrotation
                      End Site
                      {
                        OFFSET 2.0404 -0.1441 0.0027
                      }
                    }
                  }
                }
                JOINT LeftHandRing1
                {
                  OFFSET 8.5234 0.597198 -2.0164
                  CHANNELS 3 Zrotation Xrotation Yrotation
                  JOINT LeftHandRing2
                  {
                    OFFSET 3.7188 -0.188293 -0.2328
                    CHANNELS 3 Zrotation Xrotation Yrotation
                    JOINT LeftHandRing3
                    {
                      OFFSET 2.1191 -0.106598 -0.1332
                      CHANNELS 3 Zrotation Xrotation Yrotation
                      End Site
                      {
                        OFFSET 1.8737 -0.2304 -0.0886
                      }
                    }
                  }
                }
                JOINT LeftHandPinky1
                {
                  OFFSET 7.9094 -0.601089 -3.4825
                  CHANNELS 3 Zrotation Xrotation Yrotation
                  JOINT LeftHandPinky2
                  {
                    OFFSET 2.2874 -0.477005 -0.6314
                    CHANNELS 3 Zrotation Xrotation Yrotation
                    JOINT LeftHandPinky3
                    {
                      OFFSET 1.6774 -0.349396 -0.4633
                      CHANNELS 3 Zrotation Xrotation Yrotation
                      End Site
                      {
                        OFFSET 1.4888 -0.4091 -0.3416
                      }
                    }
                  }
                }
                JOINT LeftHandThumb1
                {
                  OFFSET 1.833 -1.3875 1.3896
                  CHANNELS 3 Zrotation Xrotation Yrotation
                  JOINT LeftHandThumb2
                  {
                    OFFSET 3.4129 -1.121 2.5732
                    CHANNELS 3 Zrotation Xrotation Yrotation
                    JOINT LeftHandThumb3
                    {
                      OFFSET 2.2474 -0.804199 1.6192
                      CHANNELS 3 Zrotation Xrotation Yrotation
                      End Site
                      {
                        OFFSET 1.6527 -0.5689 1.1317
                      }
                    }
                  }
                }
              }
            }
          }
        }
        JOINT RightShoulder
        {
          OFFSET -2.2086 21.1115 7.2329
          CHANNELS 3 Zrotation Xrotation Yrotation
          JOINT RightArm
          {
            OFFSET -13.1216 3.0287 -4.9007
            CHANNELS 3 Zrotation Xrotation Yrotation
            JOINT RightForeArm
            {
              OFFSET -27.4081 -0.0973053 -0.2375
              CHANNELS 3 Zrotation Xrotation Yrotation
              JOINT RightHand
              {
                OFFSET -22.8641 0.0664063 -0.1369
                CHANNELS 3 Zrotation Xrotation Yrotation
                JOINT RightHandIndex1
                {
                  OFFSET -8.8614 0.774994 2.4612
                  CHANNELS 3 Zrotation Xrotation Yrotation
                  JOINT RightHandIndex2
                  {
                    OFFSET -3.3146 -0.808304 0.5841
                    CHANNELS 3 Zrotation Xrotation Yrotation
                    JOINT RightHandIndex3
                    {
                      OFFSET -2.2628 -0.552002 0.3989
                      CHANNELS 3 Zrotation Xrotation Yrotation
                      End Site
                      {
                        OFFSET -1.6102 -0.4807 0.2612
                      }
                    }
                  }
                }
                JOINT RightHandMiddle1
                {
                  OFFSET -8.9937 0.894989 0.2143
                  CHANNELS 3 Zrotation Xrotation Yrotation
                  JOINT RightHandMiddle2
                  {
                    OFFSET -4.0984 0.0113983 -0.0242
                    CHANNELS 3 Zrotation Xrotation Yrotation
                    JOINT RightHandMiddle3
                    {
                      OFFSET -2.2716 0.00691223 -0.0138001
                      CHANNELS 3 Zrotation Xrotation Yrotation
                      End Site
                      {
                        OFFSET -2.0404 -0.1441 0.0027
                      }
                    }
                  }
                }
                JOINT RightHandRing1
                {
                  OFFSET -8.5234 0.597198 -2.0164
                  CHANNELS 3 Zrotation Xrotation Yrotation
                  JOINT RightHandRing2
                  {
                    OFFSET -3.7188 -0.188309 -0.2328
                    CHANNELS 3 Zrotation Xrotation Yrotation
                    JOINT RightHandRing3
                    {
                      OFFSET -2.1191 -0.106598 -0.1332
                      CHANNELS 3 Zrotation Xrotation Yrotation
                      End Site
                      {
                        OFFSET -1.8737 -0.2304 -0.0886
                      }
                    }
                  }
                }
                JOINT RightHandPinky1
                {
                  OFFSET -7.9094 -0.601105 -3.4825
                  CHANNELS 3 Zrotation Xrotation Yrotation
                  JOINT RightHandPinky2
                  {
                    OFFSET -2.2874 -0.477005 -0.6314
                    CHANNELS 3 Zrotation Xrotation Yrotation
                    JOINT RightHandPinky3
                    {
                      OFFSET -1.6774 -0.349396 -0.4633
                      CHANNELS 3 Zrotation Xrotation Yrotation
                      End Site
                      {
                        OFFSET -1.4888 -0.4091 -0.3416
                      }
                    }
                  }
                }
                JOINT RightHandThumb1
                {
                  OFFSET -1.833 -1.38751 1.3896
                  CHANNELS 3 Zrotation Xrotation Yrotation
                  JOINT RightHandThumb2
                  {
                    OFFSET -3.41299 -1.12099 2.5732
                    CHANNELS 3 Zrotation Xrotation Yrotation
                    JOINT RightHandThumb3
                    {
                      OFFSET -2.24741 -0.804108 1.6192
                      CHANNELS 3 Zrotation Xrotation Yrotation
                      End Site
                      {
                        OFFSET -1.6527 -0.5689 1.1317
                      }
                    }
                  }
                }
              }
            }
          }
        }
      }
    }
  }
  JOINT RightUpLeg
  {
    OFFSET -9.1966 3.8861 -0.7581
    CHANNELS 3 Zrotation Xrotation Yrotation
    JOINT RightLeg
    {
      OFFSET -0.7359 -41.0265 0
      CHANNELS 3 Zrotation Xrotation Yrotation
      JOINT RightFoot
      {
        OFFSET 0 -40.2855 0
        CHANNELS 3 Zrotation Xrotation Yrotation
        JOINT RightToeBase
        {
          OFFSET 0 -5.6122 11.7359
          CHANNELS 3 Zrotation Xrotation Yrotation
          End Site
          {
            OFFSET 0 0 7.8731
          }
        }
      }
    }
  }
  JOINT LeftUpLeg
  {
    OFFSET 9.1965 3.8864 -0.7581
    CHANNELS 3 Zrotation Xrotation Yrotation
    JOINT LeftLeg
    {
      OFFSET 0.7359 -41.0268 0
      CHANNELS 3 Zrotation Xrotation Yrotation
      JOINT LeftFoot
      {
        OFFSET 0 -40.2855 0
        CHANNELS 3 Zrotation Xrotation Yrotation
        JOINT LeftToeBase
        {
          OFFSET 0 -5.6122 11.7359
          CHANNELS 3 Zrotation Xrotation Yrotation
          End Site
          {
            OFFSET 0 0 7.8731
          }
        }
      }
    }
  }
}
MOTION
Frames:	4
Frame Time:	0.0333333
5.84602e-005 68.8428 3.50346 0 0 -0 0 0 -0 0 0 -0 0 0 -0 0 0 -0 0 0 -0 0 0 -0 0 0 -0 0 0 -0 0 0 -0 0 0 -0 0 0 -0 0 0 -0 0 0 -0 -0.0146107 -8.87603e-005 -2.63497e-007 2.99804e-018 -2.42657e-020 -1.42182e-022 0 0 -0 -0.0187562 -0.001176 5.858e-005 5.06224e-018 3.88251e-019 1.21329e-020 0 0 -0 -0.012269 -0.00324817 0.000675346 -1.74678e-018 3.88251e-019 -0 0 0 -0 0 0 -0 0 0 -0 0 0 -0 0 0 -0 0 0 -0 0 0 -0 0 0 -0 0 0 -0 0 0 -0 0 0 -0 0.0149955 -9.10982e-005 2.64101e-007 -9.69331e-018 1.21329e-020 -4.7394e-023 0 0 -0 0.0189956 -0.00119102 -5.96516e-005 -5.41541e-019 0 2.42657e-020 0 0 -0 0.0122698 -0.00324857 -0.000673756 -2.00796e-019 0 -1.94126e-019 0 0 -0 0 0 -0 0 0 -0 3.39842 1.33031 -0.0637918 -5.65207e-008 0.834868 -0.000436188 -3.39935 -2.16518 -0.0642563 -8.89002e-024 -1.18485e-023 -1.48106e-024 -3.39844 1.35642 0.0640283 -3.18788e-007 0.782166 -0.000588827 3.39931 -2.13858 0.0634662 1.1399e-023 0 -0 
1.62694 41.4367 6.56054 -7.06328 -6.61741 132.924 -0.0360639 -1.92544 -0.548045 -0.0906481 -3.85036 -1.09825 -0.0906483 -3.85036 -1.09823 7.34412 26.3116 -4.35451 -4.0332e-006 -0.567221 -9.49953e-007 -17.7592 -7.89708 1.51704 -36.7655 3.75119 -48.7564 -33.3572 37.38 0.308589 -23.3857 3.04863 -5.67355 -2.18663e-015 -3.18055e-015 -3.18055e-015 1.34454e-006 -1.72635e-007 9.61542e-007 -3.09549e-007 -2.80826e-007 1.74188e-007 -2.18663e-015 -3.18055e-015 -3.18055e-015 -0.0146631 -9.31057e-005 -9.1624e-007 -3.1064e-007 -2.80856e-007 1.74152e-007 -2.18663e-015 -3.18055e-015 -3.18055e-015 -0.0187692 -0.00117968 6.35776e-005 1.98785e-016 0 4.96962e-015 -2.18663e-015 -3.18055e-015 -3.18055e-015 -0.0122815 -0.0032456 0.000680234 -5.96354e-015 -6.36111e-015 9.54166e-015 -2.18663e-015 -3.18055e-015 -3.18055e-015 1.34454e-006 -1.72635e-007 9.61542e-007 -3.09549e-007 -2.80826e-007 1.74188e-007 -6.4343 -9.30389 -12.5894 41.9733 22.0234 69.0184 46.1905 4.89046 35.3008 35.8445 -8.27341 15.7543 -3.18055e-015 -3.18055e-015 -1.59028e-015 3.18055e-015 -3.18055e-015 -1.59028e-015 3.18055e-015 -3.18055e-015 1.59028e-015 -3.18055e-015 -3.18055e-015 -1.59028e-015 0.0149633 -8.56754e-005 -3.85205e-006 -8.82781e-032 1.59028e-015 3.18055e-015 -3.18055e-015 -3.18055e-015 -1.59028e-015 0.0190175 -0.00119201 -5.88653e-005 3.18055e-015 -3.18055e-015 -1.59028e-015 -3.18055e-015 -3.18055e-015 -1.59028e-015 0.0123035 -0.00325246 -0.000676842 3.18055e-015 -1.59028e-015 1.59028e-015 -3.18055e-015 -3.18055e-015 -1.59028e-015 3.18055e-015 -3.18055e-015 -1.59028e-015 3.18055e-015 -3.18055e-015 1.59028e-015 -2.33658 -19.4998 3.50903 4.67362 20.077 2.36067 1.13861 -12.3085 -8.97574 -5.75411e-007 -3.81986e-007 -3.64971e-006 2.84466 -17.854 -3.68226 -3.98786 16.5047 -2.61637 -2.10219 -10.5028 9.12247 2.52159e-009 -6.17139e-009 -2.14016e-010 
-0.376853 29.1514 10.061 3.24696 -13.4406 -166.284 -0.0774789 -2.75861 -0.740322 -0.191016 -5.51594 -1.48699 -0.191016 -5.51594 -1.48698 12.3231 38.2206 -7.24206 -3.97759e-007 -1.68808 1.61221e-007 -25.6604 -11.3941 2.08677 -51.6975 2.69322 -70.6057 -47.5696 60.1966 0.632192 -33.7122 4.39654 -8.23934 6.36111e-015 -9.54166e-015 6.36111e-015 -1.66565e-006 9.0489e-007 -3.29028e-006 -8.31158e-007 3.58199e-007 -1.84792e-006 6.36111e-015 -9.54166e-015 6.36111e-015 -0.0146011 -8.99442e-005 -1.72991e-006 -8.29136e-007 3.58447e-007 -1.84788e-006 6.36111e-015 -9.54166e-015 6.36111e-015 -0.018765 -0.00117571 5.16565e-005 -6.36111e-015 0 2.06736e-014 6.36111e-015 -9.54166e-015 6.36111e-015 -0.012286 -0.00324766 0.000669458 3.18055e-015 3.18055e-015 7.95139e-015 6.36111e-015 -9.54166e-015 6.36111e-015 -1.66565e-006 9.0489e-007 -3.29028e-006 -8.31158e-007 3.58199e-007 -1.84792e-006 -10.6399 -13.0498 -18.167 54.9029 2.89642 88.9621 65.223 5.45202 51.2945 52.6869 -11.4815 23.055 -2.76282e-006 2.29395e-006 1.05927e-006 3.18055e-015 1.59028e-015 -0 -4.17053e-006 2.401e-006 -2.74106e-006 -2.76282e-006 2.29395e-006 1.05927e-006 0.0149881 -9.29254e-005 -3.28463e-006 -3.20664e-006 -7.75848e-008 -1.65478e-006 -2.76282e-006 2.29395e-006 1.05927e-006 0.0189887 -0.00118342 -5.9558e-005 -3.20661e-006 -7.7656e-008 -1.65474e-006 -2.76282e-006 2.29395e-006 1.05927e-006 0.012258 -0.00324489 -0.000679065 -3.20672e-006 -7.75985e-008 -1.6547e-006 -2.76282e-006 2.29395e-006 1.05927e-006 3.18055e-015 1.59028e-015 -0 -4.17053e-006 2.401e-006 -2.74106e-006 -4.23473 -28.5235 5.20056 6.45108 28.6526 3.51807 2.02459 -16.6278 -13.0111 2.77829e-008 1.24867e-007 3.39754e-006 4.96621 -26.1916 -5.4291 -5.45713 23.6091 -3.87032 -3.63293 -14.1051 13.1419 -4.22496e-007 5.88889e-008 6.93028e-009 
0.00683073 31.892 8.9288 -8.56695e-015 -12.4585 180 -0.0638912 -2.48554 -0.703667 -0.15859 -4.97014 -1.41211 -0.15859 -4.97014 -1.41211 11.1494 36.0174 -6.61153 2.32555e-006 -3.36385 2.35535e-006 -24.0134 -10.5005 1.65678 -48.2929 2.96686 -65.5991 -44.4779 54.61 0.510218 -31.428 4.099 -7.66812 -6.36111e-015 3.18055e-015 -6.36111e-015 9.54166e-015 -3.18055e-015 -6.36111e-015 -6.36111e-015 -6.36111e-015 -2.38542e-015 -6.36111e-015 3.18055e-015 -6.36111e-015 -0.0145551 -8.9238e-005 4.84947e-006 1.59028e-015 -1.27222e-014 -4.77083e-015 -6.36111e-015 3.18055e-015 -6.36111e-015 -0.0187414 -0.00117527 5.21305e-005 -3.10924e-007 -5.64469e-007 1.29648e-006 -6.36111e-015 3.18055e-015 -6.36111e-015 -0.0123122 -0.00326095 0.000675667 1.76556e-031 6.36111e-015 -1.59028e-015 -6.36111e-015 3.18055e-015 -6.36111e-015 9.54166e-015 -3.18055e-015 -6.36111e-015 -6.36111e-015 -6.36111e-015 -2.38542e-015 -9.56958 -12.061 -16.1489 51.3657 8.24552 86.2053 61.0496 5.45322 47.7415 47.1588 -10.7957 21.3411 -0 0 1.59028e-015 -5.04582e-007 4.19544e-006 -9.21023e-007 -6.36111e-015 0 -7.95139e-016 -0 0 1.59028e-015 0.0149838 -8.42667e-005 -1.22859e-006 -2.82788e-007 1.07996e-006 -3.80889e-007 -0 0 1.59028e-015 0.0190175 -0.00119347 -6.0105e-005 -3.18055e-015 -1.59028e-015 1.59028e-015 -0 0 1.59028e-015 0.0122964 -0.0032595 -0.000679461 -8.82781e-032 -3.18055e-015 -1.59028e-015 -0 0 1.59028e-015 -5.04582e-007 4.19544e-006 -9.21023e-007 -6.36111e-015 0 -7.95139e-016 -4.03221 -25.9339 4.22957 6.10207 26.7575 3.24421 1.89445 -15.6732 -11.5389 2.54562e-009 7.35307e-009 2.1325e-007 4.67367 -23.7453 -4.47032 -5.14149 22.0462 -3.58498 -3.35865 -13.2854 11.6833 4.24014e-007 -2.00447e-009 -2.18233e-007 
